HIERARCHY
ROOT Hips
{
	OFFSET -0.001795 -0.223333 0.028219
	CHANNELS 6 Xposition Yposition Zposition Zrotation Yrotation Xrotation 
	JOINT LeftUpLeg
	{
		OFFSET 0.069520 -0.091406 -0.006815
		CHANNELS 3 Zrotation Yrotation Xrotation
		JOINT LeftLeg
		{
			OFFSET 0.034277 -0.375199 -0.004496
			CHANNELS 3 Zrotation Yrotation Xrotation
			JOINT LeftFoot
			{
				OFFSET -0.013596 -0.397961 -0.043693
				CHANNELS 3 Zrotation Yrotation Xrotation
				JOINT LeftToe
				{
					OFFSET 0.026358 -0.055791 0.119288
					CHANNELS 3 Zrotation Yrotation Xrotation
					End Site
					{
						OFFSET 0.000000 0.000000 0.000000
					}
				}
			}
		}
	}
	JOINT RightUpLeg
	{
		OFFSET -0.067670 -0.090522 -0.004320
		CHANNELS 3 Zrotation Yrotation Xrotation
		JOINT RightLeg
		{
			OFFSET -0.038290 -0.382569 -0.008850
			CHANNELS 3 Zrotation Yrotation Xrotation
			JOINT RightFoot
			{
				OFFSET 0.015774 -0.398415 -0.042312
				CHANNELS 3 Zrotation Yrotation Xrotation
				JOINT RightToe
				{
					OFFSET -0.025372 -0.048144 0.123348
					CHANNELS 3 Zrotation Yrotation Xrotation
					End Site
					{
						OFFSET 0.000000 0.000000 0.000000
					}
				}
			}
		}
	}
	JOINT Spine
	{
		OFFSET -0.002533 0.108963 -0.026696
		CHANNELS 3 Zrotation Yrotation Xrotation
		JOINT Spine1
		{
			OFFSET 0.005487 0.135180 0.001092
			CHANNELS 3 Zrotation Yrotation Xrotation
			JOINT Spine2
			{
				OFFSET 0.001457 0.052922 0.025425
				CHANNELS 3 Zrotation Yrotation Xrotation
				JOINT Neck
				{
					OFFSET -0.002778 0.213870 -0.042857
					CHANNELS 3 Zrotation Yrotation Xrotation
					JOINT Head
					{
						OFFSET 0.005152 0.064970 0.051349
						CHANNELS 3 Zrotation Yrotation Xrotation
						End Site
						{
							OFFSET 0.000000 0.000000 0.000000
						}
					}
				}
				JOINT LeftShoulder
				{
					OFFSET 0.078845 0.121749 -0.034090
					CHANNELS 3 Zrotation Yrotation Xrotation
					JOINT LeftArm
					{
						OFFSET 0.090977 0.030469 -0.008868
						CHANNELS 3 Zrotation Yrotation Xrotation
						JOINT LeftForeArm
						{
							OFFSET 0.259612 -0.012772 -0.027456
							CHANNELS 3 Zrotation Yrotation Xrotation
							JOINT LeftHand
							{
								OFFSET 0.249234 0.008986 -0.001171
								CHANNELS 3 Zrotation Yrotation Xrotation
								End Site
								{
									OFFSET 0.000000 0.000000 0.000000
								}
							}
						}
					}
				}
				JOINT RightShoulder
				{
					OFFSET -0.081759 0.118833 -0.038615
					CHANNELS 3 Zrotation Yrotation Xrotation
					JOINT RightArm
					{
						OFFSET -0.096012 0.032551 -0.009143
						CHANNELS 3 Zrotation Yrotation Xrotation
						JOINT RightForeArm
						{
							OFFSET -0.253742 -0.013329 -0.021401
							CHANNELS 3 Zrotation Yrotation Xrotation
							JOINT RightHand
							{
								OFFSET -0.255298 0.007772 -0.005559
								CHANNELS 3 Zrotation Yrotation Xrotation
								End Site
								{
									OFFSET 0.000000 0.000000 0.000000
								}
							}
						}
					}
				}
			}
		}
	}
}
MOTION
Frames: 16
Frame Time: 0.050000
0.000000 0.516204 0.000000 2.151672 1.135099 -1.015099 23.228589 9.358870 -77.983828 -16.140077 23.638290 112.731559 8.972939 16.765774 -21.847196 0.000000 0.000000 0.000000 -19.073929 -7.048326 -84.384857 13.890557 -18.696556 113.810841 -8.152380 -19.837276 -21.999804 0.000000 0.000000 0.000000 2.547285 -6.094033 75.888787 -5.831188 1.949267 -27.854392 -1.906069 4.009674 21.499672 11.133861 -5.455045 -19.954761 0.000000 0.000000 0.000000 -28.202930 -48.979044 28.936606 -9.422571 -32.009094 -0.418966 13.856504 -20.937844 -1.895646 0.000000 0.000000 0.000000 25.270412 35.691094 21.759570 3.707642 32.017393 -1.727292 -11.405320 12.113119 -0.734349 0.000000 0.000000 0.000000 
-0.002204 0.523080 0.014044 1.769543 0.701998 0.585177 22.367315 9.061571 -78.792598 -14.999106 22.113439 113.550335 8.949116 16.994597 -18.570271 0.000000 0.000000 0.000000 -18.620460 -6.611891 -86.295760 13.776031 -18.664962 114.054041 -8.111815 -19.688894 -16.693072 0.000000 0.000000 0.000000 2.789189 -5.984156 74.555055 -7.991739 2.289929 -29.423479 0.696447 6.382986 23.800492 12.718076 -5.028236 -25.455289 0.000000 0.000000 0.000000 -28.737431 -50.895468 29.969053 -10.432611 -31.884907 -0.286612 14.610980 -21.355321 -2.056005 0.000000 0.000000 0.000000 25.965141 31.620699 20.373291 4.521240 32.196704 -1.847027 -15.206258 12.326496 -1.077264 0.000000 0.000000 0.000000 
-0.003529 0.536368 0.027229 2.160834 1.999651 0.679267 20.005399 6.265579 -77.895207 -14.357800 19.685453 111.428481 9.430591 18.551377 -18.298897 0.000000 0.000000 0.000000 -18.165175 -6.872812 -84.372174 13.493452 -18.173346 113.711756 -8.722570 -21.978966 -15.487397 0.000000 0.000000 0.000000 3.213736 -6.928409 74.605714 -6.696647 2.074308 -29.420144 -1.547190 6.656914 22.009454 15.659317 -7.924572 -20.772538 0.000000 0.000000 0.000000 -32.145759 -48.695528 29.772276 -9.686482 -30.273048 -0.385643 11.676546 -22.515089 -1.568695 0.000000 0.000000 0.000000 29.105480 32.471679 22.283346 4.532659 28.726597 -1.731916 -14.413810 12.449555 -1.036087 0.000000 0.000000 0.000000 
-0.004267 0.553028 0.039381 2.729179 1.415998 1.309447 19.624480 6.173025 -76.457863 -15.165754 20.856571 110.221343 10.161051 20.772547 -16.312977 0.000000 0.000000 0.000000 -17.684446 -5.961607 -83.722687 12.094423 -15.246528 113.051589 -8.123275 -19.779195 -12.913677 0.000000 0.000000 0.000000 4.002880 -7.149706 73.857634 -9.180528 2.524582 -29.400906 -0.916729 6.095946 22.111848 15.830405 -7.289814 -23.770182 0.000000 0.000000 0.000000 -29.775821 -48.061414 28.489605 -11.882236 -30.125445 -0.129053 13.405091 -26.046212 -2.241589 0.000000 0.000000 0.000000 27.642461 30.658496 20.327467 6.012481 29.332951 -1.535108 -14.264225 13.620516 -1.118510 0.000000 0.000000 0.000000 
-0.004215 0.572549 0.050037 3.039397 1.679091 2.146344 18.872967 5.158191 -73.576490 -16.334108 21.006435 105.855846 10.628825 22.218684 -17.635284 0.000000 0.000000 0.000000 -17.697015 -5.799474 -80.582639 11.248869 -13.019404 109.992205 -7.791228 -18.538589 -14.241895 0.000000 0.000000 0.000000 3.328742 -6.660896 73.000007 -8.063566 2.273160 -29.971854 -0.239977 7.421412 22.327434 15.609351 -6.760942 -24.359932 0.000000 0.000000 0.000000 -27.686022 -47.255327 26.562570 -14.232711 -30.592308 0.251259 14.904344 -26.719843 -2.657255 0.000000 0.000000 0.000000 28.110200 30.110251 20.663205 6.651239 28.586150 -1.498280 -15.121915 12.963090 -1.131214 0.000000 0.000000 0.000000 
-0.003642 0.590658 0.059223 3.222824 1.563756 2.464901 18.105671 4.454720 -71.109198 -16.951920 20.579488 102.242107 11.031236 23.442022 -17.536204 0.000000 0.000000 0.000000 -17.857556 -5.568788 -77.986824 10.245804 -10.701686 107.176648 -6.935864 -15.274985 -15.259188 0.000000 0.000000 0.000000 4.222588 -7.212017 72.423774 -8.545965 2.385938 -29.374963 -0.885349 7.961290 21.103402 15.657381 -6.498295 -24.810870 0.000000 0.000000 0.000000 -24.887136 -46.332282 24.592522 -17.011412 -30.996693 0.753478 15.616680 -28.530207 -3.042979 0.000000 0.000000 0.000000 28.912917 28.408602 20.057368 7.587295 28.377335 -1.396839 -15.795877 14.360362 -1.338591 0.000000 0.000000 0.000000 
-0.003095 0.608322 0.067209 3.485786 1.986008 2.919811 16.860521 3.258322 -69.173192 -16.676883 18.858030 99.100804 10.922562 23.206757 -17.835582 0.000000 0.000000 0.000000 -18.145051 -5.731337 -75.276598 10.381283 -10.426043 103.523100 -7.416021 -16.910998 -16.328445 0.000000 0.000000 0.000000 4.991385 -7.788558 71.030818 -8.898305 2.392113 -30.400721 -0.777783 7.536569 22.105252 15.599732 -6.589901 -24.682376 0.000000 0.000000 0.000000 -25.593454 -45.765187 24.639803 -17.248883 -29.832606 0.615591 17.359944 -29.288102 -3.583945 0.000000 0.000000 0.000000 29.546060 27.554292 19.638784 8.112038 28.422680 -1.391554 -16.618584 15.207102 -1.522716 0.000000 0.000000 0.000000 
-0.003158 0.625063 0.073634 3.531537 2.039783 2.799166 16.063819 2.584474 -66.778033 -16.664905 17.819987 96.335805 10.999088 23.361540 -16.596606 0.000000 0.000000 0.000000 -17.553283 -4.987269 -72.087180 9.581098 -8.788033 100.478127 -7.281136 -16.230362 -17.309126 0.000000 0.000000 0.000000 4.928030 -7.567452 69.733194 -7.795421 2.253163 -29.309271 -1.322811 7.973805 20.927494 15.778872 -6.622488 -24.475680 0.000000 0.000000 0.000000 -25.355509 -45.738596 24.351585 -17.748602 -28.814263 0.667796 18.853813 -30.291617 -4.135342 0.000000 0.000000 0.000000 31.663155 26.774923 20.034218 8.032478 27.867899 -1.436021 -17.560179 16.347209 -1.779381 0.000000 0.000000 0.000000 
-0.003993 0.641617 0.078637 3.475262 2.399533 2.912267 15.534386 2.003835 -64.637269 -16.399508 16.518534 93.922458 10.878864 22.993198 -15.674771 0.000000 0.000000 0.000000 -17.201714 -4.636098 -69.181822 9.408313 -8.362223 97.771471 -7.435412 -16.767406 -17.720931 0.000000 0.000000 0.000000 5.240532 -7.711167 68.125904 -7.349644 2.198501 -28.701399 -1.793469 7.548002 20.467059 15.802087 -6.206132 -26.129495 0.000000 0.000000 0.000000 -24.520729 -46.165075 24.423178 -16.643083 -28.622390 0.498667 19.801797 -29.197303 -4.229826 0.000000 0.000000 0.000000 31.070283 26.704712 19.690945 9.463771 28.035312 -1.232498 -18.091570 17.664823 -2.001275 0.000000 0.000000 0.000000 
-0.004940 0.662102 0.082481 3.301474 2.738301 2.928903 15.018757 1.468520 -61.848848 -16.279698 15.162308 90.476738 10.930841 23.118789 -14.720997 0.000000 0.000000 0.000000 -16.795272 -4.216558 -65.890942 9.055021 -7.665345 94.335836 -7.225484 -15.996001 -17.103117 0.000000 0.000000 0.000000 5.608295 -7.891295 66.655051 -7.070611 2.126382 -29.140328 -1.707090 6.731681 20.806547 15.706147 -5.737620 -28.348829 0.000000 0.000000 0.000000 -24.274464 -46.057535 24.491463 -16.528034 -27.593806 0.347024 21.363705 -30.039928 -4.789996 0.000000 0.000000 0.000000 30.462197 26.505312 19.052583 10.769669 28.541714 -1.029370 -18.250171 19.623749 -2.272701 0.000000 0.000000 0.000000 
-0.005700 0.682415 0.085742 3.112549 2.835596 2.863125 14.927196 1.301306 -58.805689 -16.238240 13.919730 86.282780 10.671764 22.428821 -14.555435 0.000000 0.000000 0.000000 -16.425260 -3.787646 -63.217829 9.046086 -7.350992 90.797281 -7.024193 -15.330353 -16.428188 0.000000 0.000000 0.000000 5.922364 -7.864509 64.856422 -6.731097 2.090759 -28.393278 -1.872857 6.142106 20.419079 15.292164 -5.186369 -29.850559 0.000000 0.000000 0.000000 -23.433409 -45.612773 24.019182 -17.777512 -27.159449 0.459690 22.074099 -31.248759 -5.195267 0.000000 0.000000 0.000000 29.661377 26.242575 18.414866 13.013696 28.464477 -0.691373 -18.905219 21.024716 -2.533684 0.000000 0.000000 0.000000 
-0.005901 0.707827 0.089009 2.691980 2.602737 2.395885 14.745573 1.186015 -54.521297 -16.139074 12.517170 80.721689 10.628094 22.292030 -14.432190 0.000000 0.000000 0.000000 -15.780466 -3.027195 -59.513096 8.967920 -6.715208 85.983881 -6.449804 -13.367333 -15.460475 0.000000 0.000000 0.000000 6.436254 -7.682759 62.150283 -6.233486 2.042794 -26.952839 -1.948991 5.448053 20.241332 15.188107 -4.832237 -31.670193 0.000000 0.000000 0.000000 -22.852044 -44.459427 23.207027 -19.947910 -25.691256 0.529847 22.936747 -34.219033 -5.999631 0.000000 0.000000 0.000000 29.987622 25.905546 17.968293 15.070564 27.904208 -0.414464 -19.261997 23.093511 -2.868802 0.000000 0.000000 0.000000 
-0.005851 0.733230 0.092424 2.721957 2.664445 2.036243 14.236152 0.849976 -50.210279 -16.649036 11.739559 75.027672 10.875218 22.917311 -13.933168 0.000000 0.000000 0.000000 -15.904572 -2.828478 -55.697954 9.294776 -6.648107 81.190841 -6.093609 -12.375244 -14.276915 0.000000 0.000000 0.000000 7.041525 -7.657155 59.617996 -6.399694 2.079813 -26.998897 -1.434988 4.498124 21.204508 14.599396 -4.236092 -34.007884 0.000000 0.000000 0.000000 -23.913575 -42.476888 22.581447 -22.196524 -24.066700 0.450138 21.988004 -39.907674 -6.705763 0.000000 0.000000 0.000000 28.965706 24.497024 16.343550 18.994318 26.721665 -0.036312 -20.369737 28.501499 -3.848429 0.000000 0.000000 0.000000 
-0.005697 0.762405 0.095888 2.684995 2.307004 2.007954 14.156876 0.821542 -45.673816 -17.028372 10.935308 68.543550 10.954065 22.903506 -11.217492 0.000000 0.000000 0.000000 -15.424899 -2.205820 -51.784308 9.004154 -5.756286 75.937414 -5.220389 -9.913069 -12.342542 0.000000 0.000000 0.000000 7.319903 -7.100832 55.824875 -5.519655 1.934572 -25.458012 -1.856393 3.953989 21.104261 14.406493 -3.859174 -35.813515 0.000000 0.000000 0.000000 -23.356062 -39.990071 20.960726 -26.104270 -22.153546 0.393376 21.771564 -46.161529 -7.732616 0.000000 0.000000 0.000000 29.776884 23.467990 15.653324 21.156813 24.972554 -0.005374 -19.881907 34.199111 -4.557808 0.000000 0.000000 0.000000 
-0.005914 0.791592 0.099384 2.659528 1.948431 1.903986 13.815835 0.690355 -41.562829 -17.606870 10.323775 62.028153 10.839987 22.475183 -9.073155 0.000000 0.000000 0.000000 -14.803891 -1.598446 -47.763250 8.779813 -4.972575 70.371394 -4.914507 -9.620533 -10.271020 0.000000 0.000000 0.000000 7.808234 -6.744981 52.490671 -5.659557 1.973160 -24.870334 -1.814062 3.618858 21.803722 14.582582 -3.936536 -36.445513 0.000000 0.000000 0.000000 -24.642308 -38.527619 20.582218 -28.163209 -19.362877 -0.086544 20.319078 -53.541327 -8.363384 0.000000 0.000000 0.000000 30.431620 21.567107 14.367754 23.576482 22.983375 -0.119712 -18.695357 42.123490 -5.275831 0.000000 0.000000 0.000000 
-0.006402 0.824401 0.102722 2.955279 2.302299 2.581506 12.756911 0.205753 -37.763489 -17.200094 8.719645 54.811905 10.170928 20.872196 -5.682530 0.000000 0.000000 0.000000 -14.729800 -1.400509 -43.167403 8.636636 -4.436200 62.669450 -4.598133 -9.013928 -9.252361 0.000000 0.000000 0.000000 7.766339 -6.079730 47.539412 -4.811232 1.788620 -24.339702 -2.074361 2.725409 23.279220 14.748382 -3.853194 -38.066309 0.000000 0.000000 0.000000 -23.428338 -36.055298 18.925551 -32.067193 -18.188273 -0.402861 18.602026 -60.392508 -8.439706 0.000000 0.000000 0.000000 31.024075 19.858870 13.111135 26.490357 21.746158 -0.184387 -16.550838 49.764333 -5.305491 0.000000 0.000000 0.000000 
